<?xml version="1.0" encoding="UTF-8"?>
<svg width="36px" height="24px" viewBox="0 0 36 24" version="1.1" xmlns="http://www.w3.org/2000/svg" xmlns:xlink="http://www.w3.org/1999/xlink">
    <!-- Generator: Sketch 48.1 (47250) - http://www.bohemiancoding.com/sketch -->
    <title>015-black</title>
    <desc>Created with Sketch.</desc>
    <defs></defs>
    <g id="Add-Account_Mobile_Main-Menu" stroke="none" stroke-width="1" fill="none" fill-rule="evenodd" transform="translate(-22.000000, -157.000000)">
        <g id="Group-3" transform="translate(-4.000000, 20.000000)" fill="#FFFFFF" fill-rule="nonzero">
            <g id="015-black" transform="translate(26.000000, 137.000000)">
                <path d="M2.13485145,24 L33.8651486,24 C35.0429105,24 36,23.1120891 36,22.0195296 L36,17.5502682 L25.7847358,17.5502682 C25.0197474,17.5502682 24.2725494,17.4116683 23.5716065,17.1343694 C22.8955702,16.8703067 22.2871375,16.4874158 21.767657,16.0055343 C21.2481765,15.5236199 20.8354385,14.9591528 20.5507917,14.3320039 C20.2554706,13.6817494 20.1024729,12.9885848 20.1024729,12.2789162 L20.1024729,11.7210838 C20.1024729,11.0114152 20.2519125,10.3182506 20.5507917,9.66799615 C20.8354385,9.0408472 21.2482121,8.47641315 21.767657,7.99449869 C22.2871731,7.51258424 22.8955702,7.1296933 23.5716065,6.86563059 C24.2725494,6.59166552 25.0197474,6.44973181 25.7847358,6.44973181 L36,6.44973181 L36,1.98047036 C36,0.887910879 35.0429105,0 33.8651486,0 L2.13485145,0 C0.957125067,0 0,0.887910879 0,1.98047036 L0,22.0195296 C0,23.1120561 0.957125067,24 2.13485145,24 Z" id="Shape"></path>
                <path d="M36,10.2482721 C36,9.55756152 35.4643803,9 34.8008515,9 L34.2359193,9 L25.6567802,9 C24.1884628,9 23,10.2371763 23,11.7656161 L23,12.2344116 C23,13.7628514 24.1884894,15 25.6567802,15 L34.2359193,15 L34.8008515,15 C35.4643803,15 36,14.4424385 36,13.7517279 L36,10.2482721 Z M26.25,13.2857143 C25.4799865,13.2857143 24.8571429,12.7108059 24.8571429,12 C24.8571429,11.2892183 25.4799865,10.7142857 26.25,10.7142857 C27.0200135,10.7142857 27.6428571,11.2892183 27.6428571,12 C27.6428571,12.7108059 27.0200135,13.2857143 26.25,13.2857143 Z" id="Shape"></path>
            </g>
        </g>
    </g>
</svg>