<?xml version="1.0" encoding="UTF-8"?>
<svg width="37px" height="27px" viewBox="0 0 37 27" version="1.1" xmlns="http://www.w3.org/2000/svg" xmlns:xlink="http://www.w3.org/1999/xlink">
    <!-- Generator: Sketch 48.1 (47250) - http://www.bohemiancoding.com/sketch -->
    <title>008-exchange-arrows</title>
    <desc>Created with Sketch.</desc>
    <defs></defs>
    <g id="Add-Account_Mobile_Main-Menu" stroke="none" stroke-width="1" fill="none" fill-rule="evenodd" transform="translate(-22.000000, -310.000000)">
        <g id="Group-3" transform="translate(-4.000000, 20.000000)" fill="#FFFFFF" fill-rule="nonzero">
            <g id="008-exchange-arrows" transform="translate(26.000000, 290.000000)">
                <path d="M8.38341675,9.3522748 L28.6039635,9.3522748 L28.6039635,12.9434558 C28.6039635,13.1055954 28.6680027,13.2456579 28.7965792,13.3642983 C28.9254403,13.4828732 29.0778536,13.5420296 29.2538902,13.5420296 C29.4435886,13.5420296 29.5994173,13.4860177 29.7208783,13.3737319 L36.2219247,7.38851764 C36.3433857,7.27629733 36.4042941,7.13282828 36.4042941,6.95843805 C36.4042941,6.78372027 36.3433857,6.64018571 36.2214266,6.52822744 L29.7413709,0.561618326 C29.5787113,0.436754397 29.4160517,0.374518965 29.2533921,0.374518965 C29.0639784,0.374518965 28.9080785,0.430596365 28.7864041,0.542751164 C28.6646584,0.655102496 28.6038212,0.7983095 28.6038212,0.972961775 L28.6038212,4.56414272 L8.38341675,4.56414272 C8.2073801,4.56414272 8.05503795,4.62329914 7.92639031,4.7418085 C7.79774267,4.86031787 7.73341885,5.00051137 7.73341885,5.16258553 L7.73341885,8.75376648 C7.73341885,8.91584065 7.79767152,9.05609966 7.92639031,9.17454351 C8.05510911,9.29298737 8.2073801,9.3522748 8.38341675,9.3522748 Z" id="Shape"></path>
                <path d="M28.020951,18.0224318 L7.80079818,18.0224318 L7.80079818,14.430959 C7.80079818,14.2688776 7.73640346,14.1286123 7.60782747,14.0101631 C7.47910918,13.8916484 7.32669647,13.8324894 7.15073166,13.8324894 C6.9609629,13.8324894 6.80534825,13.8885693 6.68346078,14.0007291 L0.182724476,19.9858838 C0.0611216217,20.0984367 0,20.2415191 0,20.4164412 C0,20.5783261 0.0608370042,20.7157088 0.182724476,20.827541 L6.66325293,26.8132198 C6.82584072,26.9378273 6.98835734,27 7.15094513,27 C7.32690994,27 7.47932264,26.9408409 7.60796978,26.8226538 C7.73654576,26.7038771 7.80094049,26.5639394 7.80094049,26.4015959 L7.80094049,22.8103852 L28.020951,22.8103852 C28.1972716,22.8103852 28.3491862,22.7514882 28.4782603,22.6328425 C28.6068363,22.5141968 28.6708752,22.374128 28.6708752,22.2117845 L28.6708752,18.6205738 C28.6708752,18.4584269 28.6066228,18.3183581 28.4782603,18.1999745 C28.3491862,18.0815908 28.1972004,18.0224318 28.020951,18.0224318 Z" id="Shape"></path>
            </g>
        </g>
    </g>
</svg>