<?xml version="1.0" encoding="UTF-8"?>
<svg width="37px" height="24px" viewBox="0 0 37 24" version="1.1" xmlns="http://www.w3.org/2000/svg" xmlns:xlink="http://www.w3.org/1999/xlink">
    <!-- Generator: Sketch 48.1 (47250) - http://www.bohemiancoding.com/sketch -->
    <title>003-money-2</title>
    <desc>Created with Sketch.</desc>
    <defs></defs>
    <g id="Add-Account_Mobile_Main-Menu" stroke="none" stroke-width="1" fill="none" fill-rule="evenodd" transform="translate(-22.000000, -390.000000)">
        <g id="Group-3" transform="translate(-4.000000, 20.000000)" fill="#FFFFFF" fill-rule="nonzero">
            <g id="003-money-2" transform="translate(26.000000, 370.000000)">
                <path d="M15.0967742,10.0645161 C11.8921623,10.0645161 9.29032258,12.4928998 9.29032258,15.483871 C9.29032258,18.4748421 11.8921623,20.9032258 15.0967742,20.9032258 C18.3013861,20.9032258 20.9032258,18.4748421 20.9032258,15.483871 C20.9032258,12.4928998 18.3013861,10.0645161 15.0967742,10.0645161 Z M16.7601204,17.6202789 C16.5083294,17.9051333 16.1802382,18.09741 15.7911068,18.1971091 C15.6232462,18.2398372 15.5469459,18.3252935 15.5545759,18.4819635 C15.5622059,18.6386334 15.5545759,18.8024247 15.5545759,18.9590946 C15.5545759,19.1015218 15.4782756,19.1798567 15.325675,19.1798567 C15.1425544,19.1869781 14.9594337,19.1869781 14.768683,19.1798567 C14.6084524,19.1798567 14.5321521,19.0944004 14.5321521,18.9448519 C14.5321521,18.8309101 14.5321521,18.709847 14.5321521,18.5959052 C14.5321521,18.3395363 14.516892,18.3252935 14.2574711,18.2896867 C13.9141198,18.2398372 13.5860286,18.1686236 13.2731974,18.0261964 C13.0290365,17.9122547 13.0061464,17.8552838 13.0748167,17.6202789 C13.1282269,17.4422449 13.1816371,17.2642109 13.2350473,17.0861769 C13.3037175,16.8796575 13.3647577,16.8582934 13.5631385,16.9508711 C13.9064898,17.1217837 14.2727311,17.2143614 14.6542325,17.2570896 C14.8983935,17.285575 15.1425544,17.2642109 15.3714552,17.1716332 C15.7987368,17.0007206 15.8674071,16.5378322 15.5011657,16.2600992 C15.3790852,16.1675215 15.2417447,16.0963079 15.0967742,16.039337 C14.7229028,15.8826671 14.3337714,15.7687254 13.97516,15.5693273 C13.4029079,15.2488661 13.0366665,14.8073418 13.0824467,14.159298 C13.1282269,13.425798 13.5783985,12.9629096 14.3032512,12.7207833 C14.6008223,12.6210843 14.6008223,12.6210843 14.6084524,12.3291086 C14.6084524,12.2294095 14.6084524,12.1297105 14.6084524,12.0371328 C14.6160824,11.8163706 14.6542325,11.7807639 14.8907634,11.7736425 C14.9670637,11.7736425 15.035734,11.7736425 15.1120343,11.7736425 C15.6079861,11.7736425 15.6079861,11.7736425 15.6156161,12.2365309 C15.6156161,12.5641134 15.6156161,12.5641134 15.9665974,12.6210843 C16.2336484,12.6638125 16.4930694,12.7350261 16.7448603,12.8347251 C16.8822008,12.891696 16.935611,12.9771523 16.8898309,13.1124581 C16.8287906,13.3118562 16.7677504,13.5183757 16.6990802,13.7177737 C16.6304099,13.9029291 16.5693697,13.9314145 16.378619,13.8459582 C15.9894875,13.6679242 15.577466,13.5967106 15.1501844,13.6180747 C15.035734,13.625196 14.9289136,13.6394388 14.8220932,13.6821669 C14.4482218,13.8317155 14.3871816,14.2162689 14.7076427,14.4512738 C14.8678733,14.5723369 15.050994,14.6577932 15.2417447,14.7290068 C15.569836,14.8571913 15.9055572,14.9782544 16.2183884,15.1420457 C17.195032,15.661905 17.462083,16.829808 16.7601204,17.6202789 Z" id="Shape"></path>
                <circle id="Oval" cx="6.19354839" cy="15.483871" r="1.5483871"></circle>
                <circle id="Oval" cx="23.2258065" cy="15.483871" r="1.5483871"></circle>
                <path d="M33.7792337,0 L8.80891254,0 C7.36179462,0 6.19354839,1.07095214 6.19354839,2.382182 L6.19354839,4.52408628 L27.1993694,4.52408628 C29.8298077,4.52408628 31.9627992,6.47376838 31.9627992,8.86281546 L31.9627992,17.0322581 L33.7716966,17.0322581 C35.2188145,17.0322581 36.3870607,15.9613059 36.3870607,14.6500761 L36.3870607,2.382182 C36.3945978,1.07095214 35.2188145,0 33.7792337,0 Z" id="Shape"></path>
                <path d="M27.5788009,6.96774194 L2.61471145,6.96774194 C1.16795468,6.96774194 0,8.03869407 0,9.34992394 L0,21.617818 C0,22.9359129 1.17548987,24 2.61471145,24 L27.5788009,24 C29.0255577,24 30.1935124,22.9290479 30.1935124,21.617818 L30.1935124,9.35678902 C30.2010476,8.03869407 29.0255577,6.96774194 27.5788009,6.96774194 Z M27.9630957,19.1532551 C27.8123918,19.1257947 27.6541528,19.1120646 27.4959138,19.1120646 C26.0340867,19.1120646 24.8435264,20.1898818 24.8435264,21.528572 C24.8435264,21.6796037 24.8585968,21.8306354 24.8887375,21.974802 L5.51576018,21.974802 C5.53083056,21.878691 5.53836576,21.7757148 5.53836576,21.6727386 C5.53836576,20.3409135 4.35534069,19.2562312 2.88597835,19.2562312 C2.6599226,19.2562312 2.44140205,19.2836915 2.23041669,19.3317471 L2.23041669,11.9311932 C2.44140205,11.9792487 2.6599226,12.0067091 2.88597835,12.0067091 C4.3478055,12.0067091 5.53836576,10.9288918 5.53836576,9.59020166 C5.53836576,9.38424933 5.50822499,9.19202715 5.45547865,8.99980497 L24.8962727,8.99980497 C24.866132,9.1439716 24.8510616,9.29500332 24.8510616,9.44603503 C24.8510616,10.7778601 26.0340867,11.8625424 27.503449,11.8625424 C27.661688,11.8625424 27.819927,11.8488123 27.9706309,11.821352 L27.9706309,19.1532551 L27.9630957,19.1532551 Z" id="Shape"></path>
            </g>
        </g>
    </g>
</svg>