<?xml version="1.0" encoding="UTF-8"?>
<svg width="23px" height="17px" viewBox="0 0 23 17" version="1.1" xmlns="http://www.w3.org/2000/svg" xmlns:xlink="http://www.w3.org/1999/xlink">
    <!-- Generator: Sketch 47.1 (45422) - http://www.bohemiancoding.com/sketch -->
    <title>Tutorial Copy 3</title>
    <desc>Created with Sketch.</desc>
    <defs></defs>
    <g id="Page-1" stroke="none" stroke-width="1" fill="none" fill-rule="evenodd">
        <g id="Add-Account_Desktop_Step-2" transform="translate(-35.000000, -388.000000)" fill-rule="nonzero" fill="#FFFFFF">
            <g id="Tutorial-Copy-3" transform="translate(35.000000, 388.000000)">
                <path d="M3.5452309,0 C3.5446108,0 3.5439132,0 3.5432931,0 C3.32556269,0 3.12077673,0.0826838668 2.96614086,0.232949524 C2.80979973,0.38487641 2.72368421,0.58716872 2.72368421,0.802524326 L2.72368421,12.8362361 C2.72368421,13.2775188 3.09364763,13.6374013 3.54848639,13.6385339 C5.46597123,13.642989 8.67852184,14.0323206 10.8947368,16.2916667 L10.8947368,3.69804538 C10.8947368,3.54845932 10.8555159,3.4079345 10.7814922,3.29164851 C8.96252477,0.437960208 5.4670564,0.00437960208 3.5452309,0 Z" id="Shape"></path>
                <path d="M19.7467105,12.8363116 L19.7467105,0.802524326 C19.7467105,0.58716872 19.6605942,0.38487641 19.5042516,0.232949524 C19.3496142,0.0826838668 19.1446713,0 18.9271714,0 C18.9264738,0 18.9257761,0 18.925156,0 C17.0033898,0.00445511246 13.5078883,0.438035718 11.6888261,3.29172402 C11.6148017,3.40801001 11.5756579,3.54853483 11.5756579,3.69812089 L11.5756579,16.2916667 C13.7918939,14.0323206 17.004475,13.642989 18.921978,13.6385339 C19.3767436,13.6374013 19.7467105,13.2775188 19.7467105,12.8363116 Z" id="Shape"></path>
                <path d="M21.6633603,2.83333333 L21.0780971,2.83333333 L21.0780971,12.7600818 C21.0780971,13.8717292 20.1547847,14.7781975 19.0198023,14.7809541 C17.4261638,14.7846792 14.7984791,15.0903618 12.9375,16.8181424 C16.1560681,16.0451076 19.5490152,16.5476249 21.4826776,16.9798867 C21.7241195,17.0338263 21.9736121,16.9780987 22.1670543,16.8268592 C22.3598129,16.6759922 22.4703947,16.4504741 22.4703947,16.2084164 L22.4703947,3.62499378 C22.4704707,3.18848535 22.1083457,2.83333333 21.6633603,2.83333333 Z" id="Shape"></path>
                <path d="M1.39230876,12.7602017 L1.39230876,2.83333333 L0.807040851,2.83333333 C0.362127873,2.83333333 0,3.18848964 0,3.62500334 L0,16.2083544 C0,16.4504895 0.110582673,16.6759359 0.303342853,16.8268047 C0.496634682,16.9779715 0.745901393,17.0339234 0.987725039,16.9798341 C2.92140282,16.5474926 6.31445289,16.0450436 9.53289474,16.8180879 C7.67197671,15.0903608 5.04427114,14.7847491 3.45061989,14.7810239 C2.31570446,14.7783418 1.39230876,13.8718625 1.39230876,12.7602017 Z" id="Shape"></path>
            </g>
        </g>
    </g>
</svg>