<svg xmlns="http://www.w3.org/2000/svg" width="14" height="16" viewBox="0 0 14 16">
    <path fill="#488AFF" fill-rule="nonzero" d="M13.611 6h-1.167V4.667C12.444 2.093 10.002 0 7 0S1.556 2.093 1.556 4.667V6H.389C.174 6 0 6.15 0 6.333v8.334C0 15.402.698 16 1.556 16h10.888c.858 0 1.556-.598 1.556-1.333V6.333C14 6.15 13.826 6 13.611 6zm-5.295 7.352a.333.333 0 0 1-.079.254.315.315 0 0 1-.237.108H6.727a.315.315 0 0 1-.237-.108.333.333 0 0 1-.08-.254l.202-1.853a1.303 1.303 0 0 1-.521-1.05c0-.72.57-1.306 1.273-1.306.702 0 1.272.586 1.272 1.306 0 .422-.194.807-.52 1.05l.2 1.853zm1.866-6.495H3.818V5.333c0-1.68 1.428-3.047 3.182-3.047s3.182 1.367 3.182 3.047v1.524z"/>
</svg>
