<?xml version="1.0" encoding="UTF-8"?>
<svg width="289px" height="93px" viewBox="0 0 289 93" version="1.1" xmlns="http://www.w3.org/2000/svg" xmlns:xlink="http://www.w3.org/1999/xlink">
    <!-- Generator: Sketch 47.1 (45422) - http://www.bohemiancoding.com/sketch -->
    <title>Page 1 Copy</title>
    <desc>Created with Sketch.</desc>
    <defs>
        <polygon id="path-1" points="0 92.0324259 288.071071 92.0324259 288.071071 0.651398339 0 0.651398339"></polygon>
    </defs>
    <g id="Page-1" stroke="none" stroke-width="1" fill="none" fill-rule="evenodd">
        <g id="Empty-Fields_Mobile" transform="translate(-43.000000, -97.000000)">
            <g id="Page-1-Copy" transform="translate(43.000000, 95.000000)">
                <polygon id="Fill-1" fill="#488AFF" points="0 2.21455939 31.7874923 48.1654467 0 94.1187739 26.8983315 94.1187739 58.6858238 48.1654467 26.8983315 2.21455939"></polygon>
                <polygon id="Fill-2" fill="#313131" points="38.7547893 2.21455939 70.5422816 48.7203065 97.440613 48.7203065 65.6531207 2.21455939"></polygon>
                <polygon id="Fill-3" fill="#313131" points="99.1500893 53.1494253 92.4847509 65.5327265 85.7656195 53.1494253 73.7785189 53.1494253 84.7435509 72.2163331 73.0804598 91.9042146 85.0663094 91.9042146 92.4847509 78.8480913 99.8493994 91.9042146 111.835249 91.9042146 100.170907 72.2163331 111.13719 53.1494253"></polygon>
                <g id="Group-12">
                    <path d="M150.982586,67.1245072 L140.442586,68.0998119 C139.3473,63.3236875 136.216871,61.0647098 131.677871,61.0647098 C125.729086,61.0647098 122.0243,65.481071 122.0243,72.0548157 C122.0243,79.3480867 126.251229,83.0449217 131.677871,83.0449217 C136.164657,83.0449217 139.503943,80.6831545 140.442586,76.0098196 L150.982586,76.8823348 C149.469586,86.1776098 141.643514,91.8274446 132.042157,91.8274446 C120.354657,91.8274446 111.745371,84.4313842 111.745371,72.0548157 C111.745371,59.6782473 120.354657,52.2821869 132.042157,52.2821869 C141.643514,52.2821869 149.469586,57.8806269 150.982586,67.1245072 Z" id="Fill-4" fill="#313131"></path>
                    <path d="M165.702764,72.0548157 C165.702764,78.8855341 169.77305,83.0449217 176.138336,83.0449217 C182.451407,83.0449217 186.469479,78.8855341 186.469479,72.0548157 C186.469479,65.2240974 182.451407,61.0647098 176.138336,61.0647098 C169.77305,61.0647098 165.702764,65.2240974 165.702764,72.0548157 M196.747193,72.0548157 C196.747193,84.0728163 188.139121,91.8274446 176.138336,91.8274446 C164.033121,91.8274446 155.423836,84.0728163 155.423836,72.0548157 C155.423836,60.0368152 164.033121,52.2821869 176.138336,52.2821869 C188.139121,52.2821869 196.747193,60.0368152 196.747193,72.0548157" id="Fill-6" fill="#313131"></path>
                    <mask id="mask-2" fill="white">
                        <use xlink:href="#path-1"></use>
                    </mask>
                    <g id="Clip-9"></g>
                    <polygon id="Fill-8" fill="#313131" mask="url(#mask-2)" points="202.493071 91.2627001 212.563143 91.2627001 212.563143 52.8469313 202.493071 52.8469313"></polygon>
                    <polygon id="Fill-10" fill="#313131" mask="url(#mask-2)" points="241.732593 52.8471704 251.802664 52.8471704 251.802664 92.0326649 229.52295 73.3393254 229.52295 91.2629392 219.452879 91.2629392 219.452879 52.0762494 241.732593 70.8221788"></polygon>
                    <path d="M287.4972,64.7620229 L277.218271,65.2759702 C277.218271,62.6560341 275.600843,60.8584137 272.574843,60.8584137 C270.069771,60.8584137 268.452343,62.143282 268.452343,64.2480756 C268.452343,66.1998801 269.862129,66.9194064 274.923271,68.10029 C282.644914,70.1034893 288.071557,72.7736248 288.071557,79.6557379 C288.071557,88.1812872 281.392986,91.8279227 273.409057,91.8279227 C263.913343,91.8279227 257.234771,87.256182 257.286986,78.8334222 L267.565914,78.3206701 C267.5137,81.2477794 269.965343,83.2509787 273.409057,83.2509787 C276.070771,83.2509787 277.792629,82.3772682 277.792629,80.1696852 C277.792629,78.2692754 275.653057,77.189986 271.166271,76.0091025 C264.069986,74.2114821 258.174629,72.1066886 258.174629,64.5564439 C258.174629,57.9313045 262.818057,52.282665 272.365986,52.282665 C281.392986,52.282665 287.392771,56.9559998 287.4972,64.7620229" id="Fill-11" fill="#313131" mask="url(#mask-2)"></path>
                </g>
            </g>
        </g>
    </g>
</svg>